<svg xmlns="http://www.w3.org/2000/svg" width="162.479" height="32.663" viewBox="0 0 162.479 32.663">
  <g id="Group_1" data-name="Group 1" transform="translate(-25.278 -28.28)">
    <path id="Path_2" data-name="Path 2" d="M34.173,46.314a8.952,8.952,0,0,1-3.543-.7,8.575,8.575,0,0,1-4.683-4.758,9.229,9.229,0,0,1-.669-3.512V37.3a9.117,9.117,0,0,1,.67-3.5,9,9,0,0,1,1.857-2.865,8.613,8.613,0,0,1,2.85-1.942,9.212,9.212,0,0,1,3.666-.71,11.4,11.4,0,0,1,2.218.2,9.213,9.213,0,0,1,1.82.548,7.884,7.884,0,0,1,1.512.847,10.182,10.182,0,0,1,1.288,1.1l-2.428,2.815a9.165,9.165,0,0,0-2.069-1.445,5.24,5.24,0,0,0-2.366-.523,4.78,4.78,0,0,0-3.617,1.594,5.462,5.462,0,0,0-1.04,1.731,5.908,5.908,0,0,0-.372,2.105v.05a6,6,0,0,0,.372,2.117,5.535,5.535,0,0,0,1.028,1.744,4.752,4.752,0,0,0,3.63,1.62,5.292,5.292,0,0,0,2.514-.55,9.7,9.7,0,0,0,2.044-1.494L41.283,43.2A12.579,12.579,0,0,1,39.9,44.5a8.238,8.238,0,0,1-1.574.983,8.123,8.123,0,0,1-1.87.623,11.21,11.21,0,0,1-2.28.212Zm9.719-.3h3.815V28.578H43.892Zm11.577-13.9H50.192V28.578h14.37v3.537H59.285v13.9H55.469ZM71.754,39.14,65.09,28.578h4.459l4.138,7,4.212-7h4.335L75.569,39.066v6.949H71.754Z" fill="#66262c"/>
    <path id="Path_3" data-name="Path 3" d="M89.28,46.264a11.422,11.422,0,0,1-3.89-.685,10.283,10.283,0,0,1-3.469-2.1l2.255-2.715a11.33,11.33,0,0,0,2.44,1.545,6.5,6.5,0,0,0,2.738.573,3.326,3.326,0,0,0,1.846-.436,1.375,1.375,0,0,0,.656-1.209v-.05a1.524,1.524,0,0,0-.136-.66,1.379,1.379,0,0,0-.52-.535,5.422,5.422,0,0,0-1.066-.5,18.353,18.353,0,0,0-1.77-.523,21.518,21.518,0,0,1-2.38-.723,6.642,6.642,0,0,1-1.808-.984A3.974,3.974,0,0,1,83.024,35.8a5.1,5.1,0,0,1-.409-2.167v-.05a5.051,5.051,0,0,1,.446-2.154,4.909,4.909,0,0,1,1.251-1.657,5.625,5.625,0,0,1,1.92-1.07,7.655,7.655,0,0,1,2.453-.375,10.313,10.313,0,0,1,3.5.573,10.148,10.148,0,0,1,2.937,1.644l-1.982,2.89a12.533,12.533,0,0,0-2.28-1.258,5.8,5.8,0,0,0-2.23-.46,2.685,2.685,0,0,0-1.672.435,1.327,1.327,0,0,0-.557,1.084v.05a1.58,1.58,0,0,0,.16.734,1.462,1.462,0,0,0,.583.56,5.373,5.373,0,0,0,1.152.474q.73.225,1.846.523a17.59,17.59,0,0,1,2.341.785,6.523,6.523,0,0,1,1.734,1.046,3.989,3.989,0,0,1,1.065,1.432,4.885,4.885,0,0,1,.36,1.968v.05a5.4,5.4,0,0,1-.47,2.3,4.73,4.73,0,0,1-1.314,1.694A5.936,5.936,0,0,1,91.856,45.9a8.692,8.692,0,0,1-2.576.361Zm9.075-17.686h13.081v3.413h-9.29v3.537h8.175v3.413h-8.175V42.6h9.414v3.412H98.355Zm23.668,8.47a3.156,3.156,0,0,0,2.168-.673,2.283,2.283,0,0,0,.755-1.793v-.05a2.231,2.231,0,0,0-.792-1.868,3.485,3.485,0,0,0-2.206-.623h-3.79v5.007h3.865Zm-7.68-8.47h7.927a6.818,6.818,0,0,1,5.055,1.77,5.4,5.4,0,0,1,1.486,3.985v.05a5.5,5.5,0,0,1-1.028,3.45,5.961,5.961,0,0,1-2.688,1.955l4.237,6.227h-4.46l-3.716-5.58h-3v5.58h-3.816V28.579Zm15.369,0h4.211l4.534,12.281,4.534-12.281H147.1l-7.012,17.561h-3.369Zm19.629,17.437h3.815V28.578h-3.815Zm15.665.3a8.959,8.959,0,0,1-3.543-.7,8.577,8.577,0,0,1-4.682-4.758,9.235,9.235,0,0,1-.669-3.512V37.3a9.135,9.135,0,0,1,.669-3.5,9.007,9.007,0,0,1,1.858-2.865,8.62,8.62,0,0,1,2.85-1.942,9.212,9.212,0,0,1,3.666-.71,11.383,11.383,0,0,1,2.217.2,9.218,9.218,0,0,1,1.821.548,7.856,7.856,0,0,1,1.512.847,10.181,10.181,0,0,1,1.288,1.1l-2.428,2.815A9.165,9.165,0,0,0,167.5,32.34a5.24,5.24,0,0,0-2.366-.523,4.785,4.785,0,0,0-3.618,1.594,5.464,5.464,0,0,0-1.04,1.731,5.912,5.912,0,0,0-.371,2.1v.05a6.024,6.024,0,0,0,.371,2.117,5.537,5.537,0,0,0,1.029,1.744,4.756,4.756,0,0,0,3.63,1.62,5.292,5.292,0,0,0,2.514-.55,9.722,9.722,0,0,0,2.044-1.494l2.428,2.466a12.586,12.586,0,0,1-1.388,1.3,8.121,8.121,0,0,1-3.444,1.607,11.281,11.281,0,0,1-2.279.211Zm9.546-17.736h13.082v3.413h-9.291v3.537h8.176v3.413h-8.176V42.6h9.414v3.412H174.552Z" fill="#7e7e7a"/>
    <path id="Path_4" data-name="Path 4" d="M81.921,51.467h6.99V53.29H83.946v1.89h4.369V57H83.946V58.96h5.031v1.824H81.921Zm9.928,0h1.88L98.071,57.2V51.467h2.012v9.317H98.349L93.862,54.86v5.924H91.849Zm15.979,9.476a5.26,5.26,0,0,1-1.98-.36,4.464,4.464,0,0,1-2.535-2.515,5.041,5.041,0,0,1-.357-1.916v-.027a4.806,4.806,0,0,1,1.377-3.4,4.733,4.733,0,0,1,1.536-1.039,4.9,4.9,0,0,1,1.946-.379,6.743,6.743,0,0,1,1.131.087,5.371,5.371,0,0,1,.947.246,4.414,4.414,0,0,1,.82.4,6.223,6.223,0,0,1,.742.546l-1.284,1.557a5.168,5.168,0,0,0-.53-.4,3.22,3.22,0,0,0-1.165-.48,3.7,3.7,0,0,0-.728-.065,2.367,2.367,0,0,0-1.039.233,2.806,2.806,0,0,0-.847.625,2.874,2.874,0,0,0-.57.919,3.077,3.077,0,0,0-.2,1.124v.027a3.279,3.279,0,0,0,.205,1.178,2.785,2.785,0,0,0,.582.938,2.666,2.666,0,0,0,.887.62,2.856,2.856,0,0,0,1.132.219,3.212,3.212,0,0,0,1.92-.56V57.19h-2.052V55.42h4.024v4.046a6.783,6.783,0,0,1-1.7,1.044,5.561,5.561,0,0,1-2.257.433Zm7.068-.159h2.039V51.467H114.9Zm5.415-9.317h1.88l4.342,5.736V51.467h2.012v9.317H126.81l-4.487-5.924v5.924h-2.012Zm11.517,0h6.989V53.29h-4.964v1.89h4.369V57h-4.369V58.96h5.031v1.824h-7.056Zm9.928,0h6.99V53.29h-4.965v1.89h4.369V57h-4.369V58.96h5.031v1.824h-7.056Zm14.032,4.525a1.687,1.687,0,0,0,1.159-.36,1.217,1.217,0,0,0,.4-.958v-.026a1.191,1.191,0,0,0-.423-1,1.869,1.869,0,0,0-1.178-.332h-2.026v2.675h2.065Zm-4.1-4.525h4.237a3.641,3.641,0,0,1,2.7.945,2.884,2.884,0,0,1,.794,2.13v.026a2.928,2.928,0,0,1-.55,1.843,3.184,3.184,0,0,1-1.435,1.045l2.264,3.327H157.31L155.325,57.8h-1.6v2.981h-2.039V51.467Zm10.723,9.317h2.039V51.467h-2.039Zm5.414-9.317h1.88l4.342,5.736V51.467h2.012v9.317h-1.734l-4.487-5.924v5.924h-2.013ZM183.8,60.943a5.255,5.255,0,0,1-1.98-.36,4.557,4.557,0,0,1-1.535-1,4.506,4.506,0,0,1-1-1.517,5.041,5.041,0,0,1-.357-1.916v-.027a4.806,4.806,0,0,1,1.377-3.4,4.74,4.74,0,0,1,1.535-1.039,4.895,4.895,0,0,1,1.946-.379,6.755,6.755,0,0,1,1.132.087,5.337,5.337,0,0,1,.946.246,4.362,4.362,0,0,1,.821.4,6.133,6.133,0,0,1,.741.546l-1.284,1.557a5.111,5.111,0,0,0-.53-.4,3.214,3.214,0,0,0-1.165-.48,3.693,3.693,0,0,0-.727-.065,2.36,2.36,0,0,0-1.039.233,2.806,2.806,0,0,0-.847.625,2.866,2.866,0,0,0-.57.919,3.078,3.078,0,0,0-.2,1.124v.027a3.3,3.3,0,0,0,.205,1.178,2.787,2.787,0,0,0,.583.938,2.666,2.666,0,0,0,.887.62,2.855,2.855,0,0,0,1.131.219,3.208,3.208,0,0,0,1.92-.56V57.19h-2.052V55.42h4.024v4.046a6.773,6.773,0,0,1-1.7,1.044,5.563,5.563,0,0,1-2.258.433Z" fill="#abaaa6"/>
  </g>
</svg>
