<svg xmlns="http://www.w3.org/2000/svg" viewBox="0 0 70 37.255">
  <path id="Union_164" fill="#7e1614" stroke="rgba(0,0,0,0)" stroke-miterlimit="10" stroke-width="1" d="M38.713 34.127a1.883 1.883 0 0 1 1.935-1.852 2.008 2.008 0 0 1 1.358.539l-.254.322a1.564 1.564 0 0 0-1.1-.465 1.458 1.458 0 1 0 0 2.913 1.626 1.626 0 0 0 1.1-.443l.26.29a2.056 2.056 0 0 1-1.379.57 1.883 1.883 0 0 1-1.92-1.874Zm-11.783.006A1.945 1.945 0 1 1 28.875 36a1.882 1.882 0 0 1-1.945-1.868Zm.429 0a1.512 1.512 0 1 0 1.516-1.457 1.493 1.493 0 0 0-1.516 1.456Zm38.809 1.3.19-.38a1.85 1.85 0 0 0 1.236.522c.536 0 .87-.216.87-.57.005-.971-2.084-.454-2.084-1.778 0-.581.514-.955 1.283-.955a2.2 2.2 0 0 1 1.177.343l-.18.4a1.929 1.929 0 0 0-1.023-.311c-.477 0-.79.18-.79.491 0 .951 2.09.454 2.084 1.794 0 .617-.546 1.013-1.341 1.013a2.125 2.125 0 0 1-1.422-.572Zm-34.042 0 .19-.38a1.85 1.85 0 0 0 1.236.522c.535 0 .87-.216.87-.57.005-.971-2.084-.454-2.084-1.778 0-.581.515-.955 1.283-.955a2.2 2.2 0 0 1 1.177.343l-.18.4a1.928 1.928 0 0 0-1.023-.311c-.477 0-.79.18-.79.491 0 .951 2.089.454 2.084 1.794 0 .617-.546 1.013-1.341 1.013a2.124 2.124 0 0 1-1.423-.572Zm27.41.549-.769-1.182c-.079.005-.164.01-.249.01h-.987v1.167h-.424v-3.691h1.41c.928 0 1.464.454 1.464 1.24a1.157 1.157 0 0 1-.832 1.2l.869 1.256Zm-2-1.573h.987c.673 0 1.056-.3 1.056-.871 0-.559-.382-.844-1.056-.844h-.987Zm-3.6 1.573v-3.291h-1.217v-.406h2.848v.406h-1.215v3.288Zm-10.226 0v-3.697h2.519v.406h-2.1v1.214H46v.406h-1.874v1.267h2.164v.4Zm-27.505 0-1.368-1.752-.721.786v.966h-.424v-3.697h.424v2.128l1.984-2.128h.5l-1.469 1.6 1.58 2.09Zm-6.892 0v-3.697h2.518v.406H9.728v1.214H11.6v.406H9.728v1.267h2.164v.4Zm-2.332 0L6.2 34.8c-.079.005-.164.01-.249.01h-.983v1.167h-.424v-3.691h1.41c.928 0 1.464.454 1.464 1.24a1.157 1.157 0 0 1-.832 1.2l.868 1.256Zm-2-1.573h.986c.673 0 1.056-.3 1.056-.871 0-.559-.383-.844-1.056-.844h-.999ZM.07 35.979v-3.693h1.395c.917 0 1.447.454 1.447 1.24 0 .818-.53 1.287-1.447 1.287H.494v1.167Zm.424-1.573h.956c.667 0 1.054-.3 1.054-.871 0-.559-.387-.844-1.054-.844H.494Zm64.136 1.573-.413-.934h-2.026l-.413.934h-.451l1.665-3.693h.44l1.66 3.693Zm-2.259-1.34h1.665l-.836-1.874Zm-11.64 1.34L48.5 33.013v2.966h-.42v-3.693h.441l2.227 2.97v-2.97h.418v3.693Zm-28.175 0v-3.694h1.564c.747 0 1.2.344 1.2.924a.8.8 0 0 1-.684.833.9.9 0 0 1 .848.934c0 .628-.5 1-1.337 1Zm.424-.4h1.12c.6 0 .954-.237.954-.659 0-.4-.35-.638-.954-.638h-1.119Zm0-1.7h1.12c.5 0 .79-.216.79-.6s-.292-.586-.79-.586h-1.119Zm-3.769 2.1v-1.251l-1.438-2.443h.44l1.2 1.926 1.188-1.926h.435l-1.41 2.426v1.267Zm16.2-9.959a16.131 16.131 0 0 1-3.2-.328l1.353-1.346a4.922 4.922 0 0 0 3.046.838h.069a4.457 4.457 0 0 0 4.306-2.368 9.086 9.086 0 0 0 .825-4.056V.9H38.8V.511h18.179l1.365.011C65.162.583 69.046 3.631 69 8.884c-.044 4.852-3.2 7.736-8.459 7.736h-.127a10.2 10.2 0 0 1-3.435-.62v9.2h2.852v.386h-12.4V25.2h3.242V.9H42.2v17.874a8.572 8.572 0 0 1-1.316 5.062C39.8 25.285 38 26.02 35.522 26.02Zm24.237-9.973h.037c1.528 0 2.565-.837 3.163-2.557a15.256 15.256 0 0 0 .6-4.658c.046-5.443-1.724-7.888-5.74-7.924L56.979.9v14.651a8.641 8.641 0 0 0 2.667.496Zm-47.5 9.97a11.709 11.709 0 0 1-8.74-3.911A13.4 13.4 0 0 1 0 13.039a13.4 13.4 0 0 1 3.406-9.066A11.768 11.768 0 0 1 12.146 0c.2 0 .394.008.586.018.056 0 5.455.163 6.51 5.035h-.006a3.144 3.144 0 0 1 .054.58 3.2 3.2 0 1 1-1.3-2.559 5.786 5.786 0 0 0-2.558-2.033 8.337 8.337 0 0 0-2.707-.65 3.1 3.1 0 0 0-.353 0C9.02.386 6.3 6.023 6.3 13.023c0 6.178 2.117 11.29 4.919 12.4a4.567 4.567 0 0 0 1.506.2 5.63 5.63 0 0 0 4.3-2.226 9.158 9.158 0 0 0 1.889-5.781h.386a9.537 9.537 0 0 1-1.976 6.023 6.01 6.01 0 0 1-4.6 2.367c-.083 0-.166.006-.249.006ZM25.844.9H22.8V.511h12.4V.9h-3.051v11.13l-6.3 6.329Z" data-name="Union 164" transform="translate(.5 .5)"></path>
</svg>