<?xml version="1.0" encoding="UTF-8"?>
<svg xmlns="http://www.w3.org/2000/svg" id="b" width="274.9" height="55.7" viewBox="0 0 274.9 55.7">
  <g id="c">
    <path d="m26.2,0S0,22.6,0,37.1c0,10.5,8.3,18.5,26.2,18.5s24.7-9,24.7-20C51,25,26.2,0,26.2,0Z" stroke-width="0"></path>
    <path d="m15.3,21.1s-4.3,3.3-7,6.7c-2,2.6-2.3,5.2-2.6,6.7-1,5.3,7.3,4.5,9.6-13.4Z" fill="#fff" stroke-width="0"></path>
    <g>
      <path d="m61.52,17.78c0-5.38,1.5-9.57,4.5-12.56s7.17-4.5,12.52-4.5,9.71,1.47,12.68,4.42c2.97,2.94,4.45,7.07,4.45,12.37,0,3.85-.65,7.01-1.94,9.47-1.3,2.46-3.17,4.38-5.62,5.75-2.45,1.37-5.5,2.06-9.16,2.06s-6.79-.59-9.23-1.78c-2.44-1.18-4.41-3.06-5.92-5.62-1.51-2.56-2.27-5.77-2.27-9.62Zm10.18.04c0,3.33.62,5.72,1.85,7.17,1.24,1.45,2.92,2.18,5.05,2.18s3.88-.71,5.08-2.13c1.2-1.42,1.8-3.98,1.8-7.66,0-3.1-.63-5.37-1.88-6.8-1.25-1.43-2.95-2.15-5.09-2.15s-3.7.73-4.94,2.18c-1.24,1.45-1.87,3.86-1.87,7.21Z" stroke-width="0"></path>
      <path d="m101.19,1.29h10.18v12.45l10.66-12.45h13.54l-12.02,12.44,12.56,20.51h-12.54l-6.95-13.55-5.26,5.51v8.04h-10.18V1.29Z" stroke-width="0"></path>
      <path d="m137.71,23.34l9.69-.61c.21,1.57.64,2.77,1.28,3.6,1.05,1.33,2.55,2,4.5,2,1.45,0,2.57-.34,3.36-1.02.79-.68,1.18-1.47,1.18-2.37s-.38-1.62-1.12-2.29c-.75-.67-2.49-1.31-5.21-1.91-4.46-1-7.65-2.34-9.55-4-1.92-1.66-2.88-3.78-2.88-6.36,0-1.69.49-3.29,1.47-4.8.98-1.51,2.46-2.69,4.43-3.55,1.97-.86,4.67-1.29,8.1-1.29,4.21,0,7.42.78,9.63,2.35s3.52,4.06,3.94,7.47l-9.6.56c-.25-1.48-.79-2.56-1.61-3.24-.82-.67-1.94-1.01-3.38-1.01-1.18,0-2.08.25-2.67.75-.6.5-.9,1.11-.9,1.83,0,.53.25,1,.74,1.42.48.43,1.62.84,3.42,1.21,4.45.96,7.64,1.93,9.56,2.91,1.92.98,3.33,2.2,4.2,3.65.88,1.45,1.31,3.08,1.31,4.88,0,2.11-.58,4.06-1.75,5.84-1.17,1.78-2.8,3.13-4.9,4.06s-4.74,1.38-7.93,1.38c-5.6,0-9.48-1.08-11.64-3.24-2.16-2.16-3.38-4.9-3.66-8.22Z" stroke-width="0"></path>
      <path d="m172.7,1.29h27.28v7.03h-17.08v5.24h15.84v6.72h-15.84v6.5h17.58v7.46h-27.78V1.29Z" stroke-width="0"></path>
      <path d="m203.65,1.29h30.95v8.13h-10.38v24.81h-10.18V9.42h-10.38V1.29Z" stroke-width="0"></path>
      <path d="m256.33,28.8h-11.56l-1.61,5.44h-10.39L245.16,1.29h11.11l12.38,32.95h-10.66l-1.65-5.44Zm-2.11-7.12l-3.64-11.84-3.6,11.84h7.24Z" stroke-width="0"></path>
    </g>
    <rect x="59.4" y="44.1" width="215.5" height="5.9" fill="#d10000" stroke-width="0"></rect>
    <rect x="59.4" y="53.7" width="215.5" height="2" fill="#d10000" stroke-width="0"></rect>
  </g>
</svg>
